<svg xmlns="http://www.w3.org/2000/svg" id="svg1" width="432" height="432" version="1.1" viewBox="0 0 114.3 114.3" xml:space="preserve"><g id="layer1" transform="translate(-73.801712,-113.42687)"><path id="path2239" style="fill:#000" d="m 117.88315,196.35211 c 0.69135,-2.90668 -0.29861,-6.22778 1.72316,-8.74622 0.23185,-2.08862 -5.73147,-2.88066 -1.99265,-1.39447 2.49643,1.69486 -2.83954,-0.0759 -2.78351,-1.66789 -0.51919,-0.61795 -0.86602,-3.53136 -0.19136,-1.7816 0.76622,-3.36191 -3.34166,0.13601 -4.67888,-2.19111 -1.18199,-0.98765 -2.34673,-1.76697 -0.6433,-0.21629 1.44279,0.80792 1.69099,2.03721 -0.16975,0.79774 -2.92267,-1.94237 -0.88185,-5.59707 -1.28311,-7.85714 -1.59396,-2.63618 -5.22127,0.33199 -6.32125,-2.66017 -1.04783,-1.10018 -0.16068,-1.80454 -0.24585,-2.11077 -1.25971,-3.4094 1.17861,-6.70286 2.81326,-9.52877 1.28993,-2.45149 4.46987,-3.10075 3.65006,-6.14106 0.6569,-3.17427 4.16074,-3.64802 6.76042,-4.33152 2.79482,-0.76449 0.51372,-2.86106 -0.66564,-1.24261 1.04527,0.76633 -5.61784,1.2804 -2.51571,-1.00285 2.06251,-1.90641 4.88435,-1.0764 7.35526,-1.13057 3.16807,-2.43737 6.37986,0.89097 9.46237,1.74468 3.13699,-1.46586 6.64087,1.9714 9.45344,-0.83493 3.32765,-0.59855 5.64625,2.3317 7.31452,4.75683 4.31147,5.68234 8.81534,11.24175 12.75728,17.1881 1.66045,2.66794 2.36835,8.09696 -1.30511,9.18707 0.29659,1.5974 0.84366,7.30005 -3.02935,7.66281 -1.49203,-0.16691 -4.65879,-1.13079 -3.47872,1.60544 -0.40113,3.28354 1.48162,7.61289 -0.39613,10.19053 -3.1298,-0.0284 -2.40961,-4.04339 -2.70261,-6.07623 -1.70444,-3.06795 -1.56712,2.20099 -1.19825,3.36749 0.48019,2.63364 -2.39786,3.63565 -2.84621,0.85218 -0.77763,-1.49793 -1.8247,-5.31683 -1.35622,-5.67839 0.79633,4.04867 0.95348,-2.33173 -1.20672,-1.19162 0.45809,2.28667 -2.82694,3.07191 -3.64372,2.3376 -2.54796,0.59991 -4.6589,-3.91773 -5.98066,-0.71561 -2.9895,0.98754 -4.2903,3.4738 -5.33652,6.19983 -2.55161,2.71453 -2.64171,-2.50643 -1.7348,-4.05667 0.72438,-1.41559 0.35711,-5.91858 -0.63006,-2.2979 -0.90591,2.83153 -1.70145,7.2536 -4.51687,7.28094 l -0.19532,-0.0434 z m 30.53106,-0.50753 c -0.30389,-0.55893 -0.30389,0.55893 0,0 z m -4.7625,-0.26458 c -0.30389,-0.55893 -0.30389,0.55893 0,0 z m 4.49792,-0.26458 c -0.30387,-0.55896 -0.30392,0.55894 0,0 z m -4.99478,-0.84006 c -0.91584,-0.92588 0.68239,1.44481 0,0 z m 4.642,0.002 c -0.58916,0.0594 0.37681,0.68302 0,0 z m -3.88055,-0.22049 c -0.30391,-0.55895 -0.30391,0.55895 0,0 z m -24.95468,-0.71106 c -0.47271,-1.0393 0.22427,1.86477 0,0 z m 6.16926,0.44648 c -0.30389,-0.55893 -0.30389,0.55893 0,0 z M 144.44546,193.86 c -0.7067,-1.14991 -0.29459,0.83938 0,0 z m 3.08681,-0.17639 c -0.58916,0.0594 0.37681,0.68302 0,0 z m -26.81677,-2.07257 c 0.58434,-1.70265 1.67916,-3.57361 1.5659,-5.313 -0.80531,2.23868 -2.53067,5.95615 -2.57039,7.34673 0.46399,-0.6085 0.6558,-1.36303 1.00449,-2.03373 z m 21.87663,1.26674 c -0.69754,-0.2647 0.71696,1.71025 0,0 z m -21.95917,0.58534 c -0.30389,-0.55893 -0.30389,0.55893 0,0 z m 4.77059,-1.95302 c 0.90368,-3.51469 -2.15822,3.97315 -0.32661,0.80996 l 0.16232,-0.40549 z m -0.008,1.95302 c -0.30389,-0.55893 -0.30389,0.55893 0,0 z m 18.25625,0 c -0.30389,-0.55893 -0.30389,0.55893 0,0 z m 1.32292,0 c -0.30389,-0.55893 -0.30389,0.55893 0,0 z m 2.29306,-0.57326 c -0.58916,0.0594 0.37681,0.68302 0,0 z m 0.88194,0.30868 c -0.30389,-0.55893 -0.30389,0.55893 0,0 z m 0.71903,-1.65001 c -0.41409,1.18923 0.32423,1.38093 0,0 z m -30.43621,0.93894 c -0.47084,-1.04112 0.22293,1.85559 0,0 z m 2.4651,0.44649 c -0.30388,-0.55895 -0.30392,0.55895 0,0 z m 4.7625,0 c -0.30388,-0.55897 -0.30392,0.55896 0,0 z m 18.70157,-0.71107 c -0.47271,-1.03929 0.22427,1.8648 0,0 z m -23.19949,0.1819 c -0.30389,-0.55893 -0.30389,0.55893 0,0 z m 2.91042,-0.26458 c -0.30388,-0.55897 -0.30392,0.55896 0,0 z m 18.1724,-0.44649 c -0.47081,-1.04109 0.22292,1.85564 0,0 z m 5.6401,0.44649 c -0.30388,-0.55897 -0.30392,0.55896 0,0 z m -26.45834,-0.26459 c -0.30389,-0.55893 -0.30389,0.55893 0,0 z m 4.7625,-0.26458 c -0.30389,-0.55893 -0.30389,0.55893 0,0 z m 18.25625,0 c -0.30389,-0.55893 -0.30389,0.55893 0,0 z m 0.44098,-0.30868 c -0.58916,0.0594 0.37681,0.68302 0,0 z m -26.19375,-0.26458 c -0.58915,0.0594 0.3768,0.68302 0,0 z m 0.88194,0.0441 c -0.30389,-0.55893 -0.30389,0.55893 0,0 z m 6.87917,0 c -0.30391,-0.55895 -0.30391,0.55895 0,0 z m -2.11667,-0.26458 c -0.30389,-0.55893 -0.30389,0.55893 0,0 z m 4.7625,-0.95721 c -1.21806,-0.35738 -2.45634,1.12929 -0.36047,0.15575 0.12283,-0.045 0.23928,-0.10651 0.36047,-0.15575 z m 15.34583,0.31137 c -0.46712,-1.46267 -0.77399,0.85118 0,0 z m -25.4,-0.14791 c -0.30389,-0.55893 -0.30389,0.55893 0,0 z m 0.79375,0 c -0.30389,-0.55893 -0.30389,0.55893 0,0 z m 18.25625,0 c -0.30389,-0.55893 -0.30389,0.55893 0,0 z m -13.49375,-0.26458 c -0.30387,-0.55896 -0.30392,0.55894 0,0 z m 10.84792,0 c -0.30387,-0.55896 -0.30392,0.55894 0,0 z m 1.85208,0 c -0.30387,-0.55896 -0.30392,0.55894 0,0 z m -9.34861,-0.30868 c -0.75376,-0.49074 -0.0852,0.66285 0,0 z m 1.94028,0.0441 c -0.30389,-0.55893 -0.30389,0.55893 0,0 z m 8.20208,0 c -0.30389,-0.55893 -0.30389,0.55893 0,0 z M 122.48505,189.23 c -0.3039,-0.55892 -0.3039,0.55892 0,0 z m 6.87916,0 c -0.30389,-0.55893 -0.30389,0.55893 0,0 z m 4.7625,0 c -0.30389,-0.55893 -0.30389,0.55893 0,0 z m 4.49792,0 c -0.30389,-0.55893 -0.30389,0.55893 0,0 z m -5.02708,-0.22358 c -0.96053,-1.15709 -1.50083,-1.01857 0,0 z m 4.84324,-0.58798 c 0.74287,-2.08549 3.47682,-3.48951 4.27964,-0.65556 3.03318,2.14776 6.6437,-1.2593 5.90734,-4.4056 1.87365,-1.10927 4.82001,1.55804 6.19647,-1.52851 2.12454,-2.37478 -1.73304,-5.22972 1.54743,-6.57462 2.93694,-1.95093 1.35469,-6.94022 -2.39196,-5.41836 -3.73575,1.30131 -4.85258,-2.45028 -6.37599,-4.84187 -3.61732,-1.11173 -3.70401,-4.84982 -4.75197,-7.91322 -3.10709,-1.87357 -1.24732,-5.41856 -1.19431,-8.21652 -1.56816,-2.89888 -5.04144,-1.30645 -6.86165,0.20761 -0.86847,0.0475 -4.51785,-2.50093 -3.06761,-0.88201 3.39041,1.62365 2.72763,6.35238 5.7567,8.30267 3.22162,3.26674 5.54924,8.10108 4.54609,12.74163 -0.58312,3.25026 -5.04017,4.20231 -7.11672,1.84369 -1.7944,-1.3704 -1.16909,-5.66034 -1.50376,-6.23997 0.36259,5.56397 -3.20497,11.48859 -8.90869,12.58996 -5.88103,1.47749 -12.81729,-2.25609 -13.88777,-8.43827 -0.30413,-1.45625 -0.33245,-4.93886 -0.62268,-1.62545 -0.22479,2.41987 -3.02467,4.51071 -0.54173,6.24704 -0.94243,2.60769 -0.72393,7.25689 3.11976,6.67981 1.53826,-0.72767 4.09881,-0.82185 3.19625,1.67321 0.3982,3.66922 4.73594,3.72941 7.20098,2.54578 1.89305,1.38565 2.18879,5.42541 5.51948,4.04036 1.9347,-1.13925 4.51114,-3.24245 5.60337,-0.001 1.27698,0.96753 3.04041,0.49361 4.35133,-0.13072 z m 10.14981,0.2383 c -0.58915,0.0594 0.3768,0.68302 0,0 z m -18.16805,0.0441 c -0.30391,-0.55895 -0.30391,0.55895 0,0 z m 8.99583,0 c -0.30389,-0.55893 -0.30389,0.55893 0,0 z m 8.86354,-0.92604 c 1.00788,-1.53007 -1.48886,1.54766 0,0 z m -30.03021,-1.98437 c -0.30387,-0.55896 -0.30392,0.55894 0,0 z m 3.175,0 c -0.30387,-0.55896 -0.30392,0.55894 0,0 z m -4.23333,-0.52917 c -0.30389,-0.55893 -0.30389,0.55893 0,0 z m 5.02708,0 c -0.30389,-0.55893 -0.30389,0.55893 0,0 z m -6.61458,-0.79375 c -0.30389,-0.55893 -0.30389,0.55893 0,0 z m 37.74722,-0.0441 c -0.75377,-0.49075 -0.0851,0.66289 0,0 z m -1.30638,-0.24804 c -1.22956,-0.13003 -0.89569,0.43203 0,0 z m -36.87871,-0.51302 c -0.68966,-0.93859 0.25045,1.05677 0,0 z m 0.70245,0.27599 c -0.30389,-0.55893 -0.30389,0.55893 0,0 z m 37.57084,0 c -0.30391,-0.55895 -0.30391,0.55895 0,0 z m 0.52916,-0.26458 c -0.30389,-0.55893 -0.30389,0.55893 0,0 z m -38.36458,-0.26458 c -0.30387,-0.55896 -0.30392,0.55894 0,0 z m 39.55521,-0.66146 c 1.00786,-1.53005 -1.48886,1.54764 0,0 z m 0.66146,-0.92604 c -0.30388,-0.55897 -0.30392,0.55896 0,0 z m 0.26458,-0.52917 c -0.30389,-0.55893 -0.30389,0.55893 0,0 z m -44.00903,-0.30868 c -0.75379,-0.49077 -0.0851,0.6629 0,0 z m 1.32292,0 c -0.75377,-0.49073 -0.0852,0.66288 0,0 z m -2.29306,-0.22049 c -0.30389,-0.55893 -0.30389,0.55893 0,0 z m 3.175,0 c -0.30389,-0.55893 -0.30389,0.55893 0,0 z m -4.23333,-0.52916 c -0.30387,-0.55896 -0.30392,0.55894 0,0 z m 46.22085,-0.85486 c -0.5631,0.63754 0.51596,0.90888 0,0 z m -46.75002,0.3413 c -0.60906,-1.22731 -0.75883,0.0395 0,0 z m -0.79375,-1.07394 c -0.30387,-0.55896 -0.30392,0.55894 0,0 z m -0.88194,-0.83785 c -0.58916,0.0594 0.37681,0.68302 0,0 z m 0.61736,0.30868 c -0.30389,-0.55893 -0.30389,0.55893 0,0 z m 47.625,0 c -0.30389,-0.55893 -0.30389,0.55893 0,0 z m -0.26458,-0.52917 c -0.30391,-0.55895 -0.30391,0.55895 0,0 z m -36.24792,-0.79375 c -0.30389,-0.55893 -0.30389,0.55893 0,0 z m 4.7625,0 c -0.30389,-0.55893 -0.30389,0.55893 0,0 z M 108.19755,176.53 c -0.3039,-0.55892 -0.3039,0.55892 0,0 z m 10.31875,0 c -0.3039,-0.55892 -0.3039,0.55892 0,0 z m -0.79375,-0.26458 c -0.30388,-0.55895 -0.30392,0.55895 0,0 z m 8.42089,-0.79933 c 2.46091,-0.9172 5.77513,-3.88583 3.39638,-6.53462 -1.77495,-2.17967 0.034,-3.05021 2.03262,-1.92871 1.23421,-1.49365 1.43446,-6.60864 -1.67469,-5.21785 -3.12441,0.65332 -6.85275,-0.17915 -8.34038,-3.2609 -1.69383,-2.45423 -3.01602,2.45656 -5.38962,1.57107 -2.86259,-0.41974 -5.29012,0.28522 -4.56228,3.60269 -0.4257,4.7345 1.63694,10.13107 6.31279,11.98515 3.28285,1.78311 2.35467,-2.76412 -0.15269,-2.98319 -1.55155,-0.52985 -2.02082,-2.09987 0.0468,-1.36459 2.29801,1.60396 4.73978,0.97888 7.12728,0.62511 1.57128,2.27763 -5.75336,0.59893 -3.42805,3.98485 1.14231,1.06923 3.31243,-0.10841 4.63181,-0.47901 z m 0.54727,-8.05222 c -2.20225,-2.32065 4.66758,-3.27508 1.44932,-0.96177 -0.52498,0.87225 -0.29627,3.60555 -1.44932,0.96177 z m 30.19017,8.58696 c -0.30389,-0.55893 -0.30389,0.55893 0,0 z m -40.74583,-0.52916 c -0.30388,-0.55895 -0.30392,0.55895 0,0 z m 12.17083,-0.26459 c -0.30389,-0.55893 -0.30389,0.55893 0,0 z M 115.3413,174.9425 c -0.3039,-0.55892 -0.3039,0.55892 0,0 z m 42.59791,0 c -0.30389,-0.55893 -0.30389,0.55893 0,0 z m -49.47708,-1.5875 c -0.30389,-0.55893 -0.30389,0.55893 0,0 z m 5.02708,-0.26458 c -0.30387,-0.55896 -0.30392,0.55894 0,0 z m 8.7974,-0.0429 c -0.99047,-0.33673 -0.71611,0.48685 0,0 z m 36.35816,-0.26575 c -0.58915,0.0594 0.37683,0.68303 0,0 z m -39.07014,0.0441 c -0.30389,-0.55893 -0.30389,0.55893 0,0 z m 4.23333,0 c -0.30389,-0.55893 -0.30389,0.55893 0,0 z m -20.94364,-1.78594 c -1.8998,-1.79353 1.16236,1.80457 0,0 z m 55.86864,0.72761 c -0.30389,-0.55893 -0.30389,0.55893 0,0 z m -53.25291,-0.29215 c -0.77771,-0.33868 -1.00816,0.49116 0,0 z m 11.71333,0.0276 c -0.30387,-0.55896 -0.30392,0.55894 0,0 z m -10.05417,-0.26459 c -0.30389,-0.55893 -0.30389,0.55893 0,0 z m 0.8275,-0.59531 c 1.004,-1.39923 -1.54943,1.51764 0,0 z m 28.01209,0.33073 c -0.30391,-0.55895 -0.30391,0.55895 0,0 z m 4.23333,0 c -0.30389,-0.55893 -0.30389,0.55893 0,0 z m -32.75608,-0.92487 c 1.78357,-3.37242 1.0569,-7.39848 2.50321,-10.87629 -1.25292,-3.62519 -4.27262,-0.20192 -5.21604,1.78246 -1.65247,2.54403 -2.8841,6.07653 -1.27582,8.91169 0.97766,1.07091 2.96646,1.33622 3.98865,0.18214 z m 32.35284,0.16153 c 2.39729,-2.99334 0.39882,-7.01461 -1.16807,-9.91119 -0.89237,-1.93398 -4.37747,-5.32845 -4.32618,-1.05131 0.61196,3.55362 0.0473,7.5658 1.72693,10.78693 0.92736,1.24648 2.69091,1.21158 3.76732,0.17557 z m 18.65949,0.49876 c -0.30387,-0.55896 -0.30392,0.55894 0,0 z m -23.01875,-0.26459 c -0.30389,-0.55893 -0.30389,0.55893 0,0 z m 5.29167,0 c -0.30391,-0.55895 -0.30391,0.55895 0,0 z M 132.01005,170.18 c -0.30391,-0.55895 -0.30391,0.55895 0,0 z m 26.19375,0 c -0.30391,-0.55895 -0.30391,0.55895 0,0 z m -27.25209,-0.26458 c -0.30387,-0.55896 -0.30392,0.55894 0,0 z m -29.10416,-0.26459 c -0.3039,-0.55892 -0.3039,0.55892 0,0 z m 6.87916,0 c -0.30389,-0.55893 -0.30389,0.55893 0,0 z m 22.75417,0 c -0.30389,-0.55893 -0.30389,0.55893 0,0 z m 9.78958,0 c -0.30389,-0.55893 -0.30389,0.55893 0,0 z m 16.40417,-0.24897 c -0.60911,-1.22738 -0.75885,0.0394 0,0 z m -26.9875,-0.28019 c -0.30387,-0.55896 -0.30392,0.55894 0,0 z m 21.87222,-0.0441 c -0.75377,-0.49075 -0.0851,0.66289 0,0 z m 2.99861,-0.0882 c -0.65549,-0.73059 -1.26662,1.01028 0,0 z m -46.56666,-0.13229 c -0.3039,-0.55892 -0.3039,0.55892 0,0 z m 32.54375,0 c -0.30391,-0.55895 -0.30391,0.55895 0,0 z m 10.17323,-0.0682 c -1.01734,-0.99595 -2.00044,-1.45621 -0.4618,-0.15267 -0.0343,-0.0291 0.84765,0.68761 0.4618,0.15267 z M 131.2163,168.5925 c -0.30391,-0.55895 -0.30391,0.55895 0,0 z m 24.23553,-0.29473 c 0.45983,-3.51208 -3.43406,-5.37855 -4.77932,-8.24918 -2.49976,-3.25047 -4.88625,-6.59219 -7.55242,-9.71128 -1.85126,0.5502 -0.73841,1.76468 -0.78859,1.20332 -0.91008,3.24082 3.82295,4.68834 2.60083,7.78428 -0.0129,3.75816 4.93256,3.34709 5.43371,6.83522 0.72144,2.26366 2.98712,3.18683 5.08579,2.13764 z m -25.29387,-0.23444 c -0.30389,-0.55893 -0.30389,0.55893 0,0 z m 0.79375,-0.52916 c -0.30387,-0.55896 -0.30392,0.55894 0,0 z m 25.76151,-0.46303 c -0.95863,-1.31366 -2.98664,-4.29367 -3.45703,-4.39343 1.12561,1.48329 2.05144,3.14353 3.45703,4.39343 z m -23.90942,-0.0661 c -0.30391,-0.55895 -0.30391,0.55895 0,0 z m 16.93333,-0.26458 c -0.30387,-0.55896 -0.30392,0.55894 0,0 z m -38.62917,-0.26459 c -0.30389,-0.55893 -0.30389,0.55893 0,0 z m 38.27639,-0.57326 c -0.58916,0.0594 0.37681,0.68302 0,0 z m -39.86389,-0.48507 c -0.30389,-0.55893 -0.30389,0.55893 0,0 z m 39.6875,-0.79375 c -0.27541,-2.05326 -0.8671,1.51883 0,0 z m -1.14652,-0.83785 c -0.75377,-0.49073 -0.0852,0.66288 0,0 z m -1.5223,-0.69133 c -0.83604,-0.82854 -2.63665,-3.01655 -1.18078,-0.6852 0.21281,0.33542 2.62975,1.86785 1.18078,0.6852 z m -36.75409,-0.0583 c -0.3039,-0.55892 -0.3039,0.55892 0,0 z m 0.79375,-1.05833 c -0.30388,-0.55895 -0.30392,0.55895 0,0 z m 0.44097,-0.30869 c -0.58915,0.0594 0.37683,0.68303 0,0 z m 17.02153,-0.22048 c -0.30391,-0.55895 -0.30391,0.55895 0,0 z m 23.41562,-1.45521 c -0.93779,-1.46628 -1.49375,-1.29931 -0.17954,0.1461 0.93727,1.25232 1.53858,1.48928 0.17954,-0.1461 z m -25.26771,1.19063 c -0.30387,-0.55896 -0.30392,0.55894 0,0 z m 3.70417,0 c -0.30387,-0.55896 -0.30392,0.55894 0,0 z m -25.66458,-0.52919 c -0.3039,-0.55892 -0.3039,0.55892 0,0 z m 20.6375,0 c -0.30391,-0.55895 -0.30391,0.55895 0,0 z m 5.07419,-0.27649 c 4.16578,-1.19998 5.63097,-7.70933 1.85333,-10.19545 -2.89485,-2.91627 -8.27623,-1.44091 -9.58475,2.36716 -1.72877,3.99468 2.02993,8.65253 6.24448,8.1646 0.50798,-0.0425 1.01063,-0.1541 1.48694,-0.33631 z m -6.80601,-3.41565 c -2.79825,-2.38348 2.86755,-5.71907 3.6705,-2.08463 0.42399,1.91406 -2.26094,3.86505 -3.6705,2.08463 z m 0.67348,-0.52558 c -0.60907,-1.22731 -0.75883,0.0394 0,0 z m 1.54017,-0.75897 c -0.52268,-3.6735 -2.60946,2.29051 0,0 z m 0.84108,-0.0504 c -0.30387,-0.55896 -0.30392,0.55894 0,0 z m 5.02709,5.02708 c -0.30391,-0.55895 -0.30391,0.55895 0,0 z m 8.46666,-0.26458 c -0.30387,-0.55896 -0.30392,0.55894 0,0 z m -15.61041,-0.26459 c -0.30391,-0.55895 -0.30391,0.55895 0,0 z m 7.9375,0 c -0.30391,-0.55895 -0.30391,0.55895 0,0 z m -27.25209,-0.26458 c -0.30389,-0.55893 -0.30389,0.55893 0,0 z m 28.83959,0 c -0.30391,-0.55895 -0.30391,0.55895 0,0 z m 10.77046,-1.25369 c -0.48263,0.95363 0.41533,1.55611 0,0 z m -29.48973,0.94617 c -0.99053,-0.33663 -0.7161,0.48676 0,0 z m -2.18282,-0.22165 c -0.30389,-0.55893 -0.30389,0.55893 0,0 z m -7.40833,-0.26458 c -0.30389,-0.55893 -0.30389,0.55893 0,0 z m 12.05941,-0.76319 c 2.75615,-0.87006 4.14686,-5.03296 1.50294,-6.84072 -2.75505,-2.39701 -8.04725,-2.07653 -9.57197,1.56044 -1.00947,3.18503 2.28296,6.23401 5.37983,5.90645 0.92755,0.0578 1.91515,-0.0736 2.6892,-0.62617 z m -2.00524,-1.22119 c -3.05224,-3.18321 4.70091,-5.45339 3.65196,-1.0475 -0.35198,1.58143 -2.52088,2.25116 -3.65196,1.0475 z m 0.79375,-0.38126 c -0.60905,-1.22724 -0.75881,0.0395 0,0 z m 1.42096,-0.73679 c 0.48284,-2.39086 -3.27377,0.48698 -0.4822,0.43518 0.25293,-0.0223 0.33278,-0.2729 0.4822,-0.43518 z m 0.43112,-1.39549 c -0.30389,-0.55893 -0.30389,0.55893 0,0 z m 20.6375,4.23334 c -0.30387,-0.55896 -0.30392,0.55894 0,0 z m -20.10833,-0.26459 c -0.3039,-0.55892 -0.3039,0.55892 0,0 z m 3.96875,0 c -0.3039,-0.55892 -0.3039,0.55892 0,0 z m 11.1125,0 c -0.30391,-0.55895 -0.30391,0.55895 0,0 z m -23.01875,-0.26458 c -0.3039,-0.55892 -0.3039,0.55892 0,0 z m 9.02958,-0.59531 c 0.95444,-1.34374 -1.43339,1.42628 0,0 z m 29.58364,-0.71025 c -0.72549,-1.25252 -2.29163,-2.61117 -0.6827,-0.54704 0.34353,0.62001 1.85726,2.05943 0.6827,0.54704 z m -11.62572,0.52742 c -0.60905,-1.22724 -0.75881,0.0395 0,0 z m 6.3784,-0.86574 c -0.70452,-0.86525 -2.34725,-2.38316 -0.86234,-0.51549 0.22406,0.49966 2.29693,1.76582 0.86234,0.51549 z m -34.68882,0.32096 c -0.30389,-0.55893 -0.30389,0.55893 0,0 z m 25.13542,0 c -0.30391,-0.55895 -0.30391,0.55895 0,0 z m 2.38125,-0.26458 c -0.30391,-0.55895 -0.30391,0.55895 0,0 z m -28.04584,-0.52917 c -0.30389,-0.55893 -0.30389,0.55893 0,0 z m -0.26458,-1.32291 c -0.30387,-0.55896 -0.30392,0.55894 0,0 z m 33.51824,-1.24024 c -0.47271,-1.03929 0.22427,1.8648 0,0 z m 4.84634,0.2143 c -0.50757,-0.81833 -1.34179,-0.78231 0,0 z m -12.17083,-0.56157 c -0.30392,-0.55894 -0.30387,0.55896 0,0 z m 10.55578,-1.58631 c -1.75272,-2.55206 -0.9056,-0.17327 0.46179,0.77142 0.17115,-0.2948 -0.64145,-0.5148 -0.46179,-0.77142 z m -35.95578,0.2634 c -0.30389,-0.55893 -0.30389,0.55893 0,0 z m 10.84792,-0.26459 c -0.30392,-0.55895 -0.30388,0.55895 0,0 z m 2.21498,-1.94409 c 1.536,-1.35701 5.16374,-2.86687 1.22096,-3.92067 -1.75105,-0.82136 -4.83944,0.0212 -2.47732,1.75209 -0.49094,1.74533 -5.95527,-0.0455 -2.62026,1.97379 1.57299,0.95667 2.96542,3.25244 3.87662,0.19479 z m -0.3629,1.94409 c -0.30392,-0.55894 -0.30387,0.55896 0,0 z M 109.78505,151.13 c -0.3039,-0.55892 -0.3039,0.55892 0,0 z m 12.43541,0 c -0.30389,-0.55893 -0.30389,0.55893 0,0 z m -11.37708,-0.79375 c -0.30389,-0.55893 -0.30389,0.55893 0,0 z m 7.9375,0 c -0.30389,-0.55893 -0.30389,0.55893 0,0 z m -0.52917,-0.26459 c -0.30392,-0.55894 -0.30387,0.55896 0,0 z m 4.8948,-0.13229 c 0.21136,-1.05485 -0.87591,1.21886 0,0 z m -10.71563,-0.39687 c -0.30389,-0.55893 -0.30389,0.55893 0,0 z m 1.32292,-0.26459 c -0.30392,-0.55895 -0.30388,0.55895 0,0 z m 29.10416,0 c -0.30392,-0.55894 -0.30387,0.55896 0,0 z m -18.52083,-0.26458 c -0.30389,-0.55893 -0.30389,0.55893 0,0 z m 18.25625,-0.26458 c -0.30389,-0.55893 -0.30389,0.55893 0,0 z m -26.32604,-0.66146 c 0.21139,-1.05485 -0.87593,1.21881 0,0 z m 9.65729,0.13229 c -0.30389,-0.55893 -0.30389,0.55893 0,0 z m 8.46667,0 c -0.30391,-0.55895 -0.30391,0.55895 0,0 z m 0.92604,-0.13229 c 0.21138,-1.05487 -0.87591,1.21881 0,0 z m 6.74687,-0.0999 c -0.50758,-0.81835 -1.34178,-0.78229 0,0 z m -8.20208,-0.29699 c -0.30392,-0.55894 -0.30387,0.55896 0,0 z m -20.72569,-0.30868 c -0.75377,-0.49074 -0.0851,0.66288 0,0 z m 20.19652,0.0441 c -0.30389,-0.55893 -0.30389,0.55893 0,0 z m 2.64584,0 c -0.30391,-0.55895 -0.30391,0.55895 0,0 z m -6.35,-0.26458 c -0.30391,-0.55895 -0.30391,0.55895 0,0 z m 3.175,0 c -0.30391,-0.55895 -0.30391,0.55895 0,0 z m -20.6375,-0.26459 c -0.30392,-0.55895 -0.30388,0.55895 0,0 z m 18.43264,-0.0441 c -0.75377,-0.49073 -0.0852,0.66288 0,0 z m 1.41111,0.0441 c -0.30392,-0.55896 -0.30388,0.55897 0,0 z m 5.55625,-0.26458 c -0.30391,-0.55895 -0.30391,0.55895 0,0 z m 2.38125,0 c -0.30391,-0.55895 -0.30391,0.55895 0,0 z m -14.02292,-0.24897 c -0.60911,-1.22738 -0.75885,0.0394 0,0 z m -5.55625,-1.33853 c -0.30389,-0.55893 -0.30389,0.55893 0,0 z m 3.175,0 c -0.30389,-0.55893 -0.30389,0.55893 0,0 z m -1.39457,-0.29214 c -1.22936,-0.13009 -0.89588,0.43212 0,0 z m 0.42754,51.6099 c 0.11017,-1.4923 1.06256,1.64106 0,0 z m 10.42116,-6.34813 c -2.03053,-2.22775 4.21942,1.69996 0.93359,0.47367 -0.34966,-0.0786 -0.62807,-0.30431 -0.93359,-0.47367 z M 106.3781,173.42113 c -2.31135,-2.22201 3.49401,1.62777 0.34429,0.24688 -0.11476,-0.0823 -0.22953,-0.16459 -0.34429,-0.24688 z m 25.55989,-28.19685 c -1.62789,-3.12171 -5.64338,-0.81996 -7.71068,-2.64996 0.77969,-2.62051 4.96343,-1.73092 6.77014,-0.44576 1.52173,0.33181 4.41055,5.88842 0.94054,3.09572 z m -0.98628,-2.03179 c -0.30389,-0.55893 -0.30389,0.55893 0,0 z m -1.00239,1.50553 c -2.53394,-2.52218 3.77642,1.9391 0.39832,0.26792 -0.13277,-0.0893 -0.26555,-0.17861 -0.39832,-0.26792 z m -5.67834,-0.86527 c -1.62612,-1.52416 0.89367,-0.63686 0.61621,0.18277 z m 2.31511,0.0212 c 1.82582,-0.68839 0.62018,0.32335 -0.36656,0.26981 z"/></g></svg>