<svg xmlns="http://www.w3.org/2000/svg" id="svg1" width="432" height="432" version="1.1" viewBox="0 0 114.3 114.3" xml:space="preserve"><g id="layer1" transform="translate(-73.802 -113.43)"><path id="path2239" d="m117.88 196.35c0.69135-2.9067-0.29861-6.2278 1.7232-8.7462 0.23185-2.0886-5.7315-2.8807-1.9926-1.3945 2.4964 1.6949-2.8395-0.0759-2.7835-1.6679-0.51919-0.61795-0.86602-3.5314-0.19136-1.7816 0.76622-3.3619-3.3417 0.13601-4.6789-2.1911-1.182-0.98765-2.3467-1.767-0.6433-0.21629 1.4428 0.80792 1.691 2.0372-0.16975 0.79774-2.9227-1.9424-0.88185-5.5971-1.2831-7.8571-1.594-2.6362-5.2213 0.33199-6.3212-2.6602-1.0478-1.1002-0.16068-1.8045-0.24585-2.1108-1.2597-3.4094 1.1786-6.7029 2.8133-9.5288 1.2899-2.4515 4.4699-3.1008 3.6501-6.1411 0.6569-3.1743 4.1607-3.648 6.7604-4.3315 2.7948-0.76449 0.51372-2.8611-0.66564-1.2426 1.0453 0.76633-5.6178 1.2804-2.5157-1.0028 2.0625-1.9064 4.8844-1.0764 7.3553-1.1306 3.1681-2.4374 6.3799 0.89097 9.4624 1.7447 3.137-1.4659 6.6409 1.9714 9.4534-0.83493 3.3276-0.59855 5.6462 2.3317 7.3145 4.7568 4.3115 5.6823 8.8153 11.242 12.757 17.188 1.6604 2.6679 2.3684 8.097-1.3051 9.1871 0.29659 1.5974 0.84366 7.3-3.0294 7.6628-1.492-0.16691-4.6588-1.1308-3.4787 1.6054-0.40113 3.2835 1.4816 7.6129-0.39613 10.191-3.1298-0.0284-2.4096-4.0434-2.7026-6.0762-1.7044-3.068-1.5671 2.201-1.1982 3.3675 0.48019 2.6336-2.3979 3.6356-2.8462 0.85218-0.77763-1.4979-1.8247-5.3168-1.3562-5.6784 0.79633 4.0487 0.95348-2.3317-1.2067-1.1916 0.45809 2.2867-2.8269 3.0719-3.6437 2.3376-2.548 0.59991-4.6589-3.9177-5.9807-0.71561-2.9895 0.98754-4.2903 3.4738-5.3365 6.1998-2.5516 2.7145-2.6417-2.5064-1.7348-4.0567 0.72438-1.4156 0.35711-5.9186-0.63006-2.2979-0.90591 2.8315-1.7014 7.2536-4.5169 7.2809l-0.19532-0.0434zm30.531-0.50753c-0.30389-0.55893-0.30389 0.55893 0 0zm-4.7625-0.26458c-0.30389-0.55893-0.30389 0.55893 0 0zm4.4979-0.26458c-0.30387-0.55896-0.30392 0.55894 0 0zm-4.9948-0.84006c-0.91584-0.92588 0.68239 1.4448 0 0zm4.642 2e-3c-0.58916 0.0594 0.37681 0.68302 0 0zm-3.8806-0.22049c-0.30391-0.55895-0.30391 0.55895 0 0zm-24.955-0.71106c-0.47271-1.0393 0.22427 1.8648 0 0zm6.1693 0.44648c-0.30389-0.55893-0.30389 0.55893 0 0zm19.315-0.13229c-0.7067-1.1499-0.29459 0.83938 0 0zm3.0868-0.17639c-0.58916 0.0594 0.37681 0.68302 0 0zm-26.817-2.0726c0.58434-1.7026 1.6792-3.5736 1.5659-5.313-0.80531 2.2387-2.5307 5.9562-2.5704 7.3467 0.46399-0.6085 0.6558-1.363 1.0045-2.0337zm21.877 1.2667c-0.69754-0.2647 0.71696 1.7102 0 0zm-21.959 0.58534c-0.30389-0.55893-0.30389 0.55893 0 0zm4.7706-1.953c0.90368-3.5147-2.1582 3.9732-0.32661 0.80996l0.16232-0.40549zm-8e-3 1.953c-0.30389-0.55893-0.30389 0.55893 0 0zm18.256 0c-0.30389-0.55893-0.30389 0.55893 0 0zm1.3229 0c-0.30389-0.55893-0.30389 0.55893 0 0zm2.2931-0.57326c-0.58916 0.0594 0.37681 0.68302 0 0zm0.88194 0.30868c-0.30389-0.55893-0.30389 0.55893 0 0zm0.71903-1.65c-0.41409 1.1892 0.32423 1.3809 0 0zm-30.436 0.93894c-0.47084-1.0411 0.22293 1.8556 0 0zm2.4651 0.44649c-0.30388-0.55895-0.30392 0.55895 0 0zm4.7625 0c-0.30388-0.55897-0.30392 0.55896 0 0zm18.702-0.71107c-0.47271-1.0393 0.22427 1.8648 0 0zm-23.199 0.1819c-0.30389-0.55893-0.30389 0.55893 0 0zm2.9104-0.26458c-0.30388-0.55897-0.30392 0.55896 0 0zm18.172-0.44649c-0.47081-1.0411 0.22292 1.8556 0 0zm5.6401 0.44649c-0.30388-0.55897-0.30392 0.55896 0 0zm-26.458-0.26459c-0.30389-0.55893-0.30389 0.55893 0 0zm4.7625-0.26458c-0.30389-0.55893-0.30389 0.55893 0 0zm18.256 0c-0.30389-0.55893-0.30389 0.55893 0 0zm0.44098-0.30868c-0.58916 0.0594 0.37681 0.68302 0 0zm-26.194-0.26458c-0.58915 0.0594 0.3768 0.68302 0 0zm0.88194 0.0441c-0.30389-0.55893-0.30389 0.55893 0 0zm6.8792 0c-0.30391-0.55895-0.30391 0.55895 0 0zm-2.1167-0.26458c-0.30389-0.55893-0.30389 0.55893 0 0zm4.7625-0.95721c-1.2181-0.35738-2.4563 1.1293-0.36047 0.15575 0.12283-0.045 0.23928-0.10651 0.36047-0.15575zm15.346 0.31137c-0.46712-1.4627-0.77399 0.85118 0 0zm-25.4-0.14791c-0.30389-0.55893-0.30389 0.55893 0 0zm0.79375 0c-0.30389-0.55893-0.30389 0.55893 0 0zm18.256 0c-0.30389-0.55893-0.30389 0.55893 0 0zm-13.494-0.26458c-0.30387-0.55896-0.30392 0.55894 0 0zm10.848 0c-0.30387-0.55896-0.30392 0.55894 0 0zm1.8521 0c-0.30387-0.55896-0.30392 0.55894 0 0zm-9.3486-0.30868c-0.75376-0.49074-0.0852 0.66285 0 0zm1.9403 0.0441c-0.30389-0.55893-0.30389 0.55893 0 0zm8.2021 0c-0.30389-0.55893-0.30389 0.55893 0 0zm-15.61-0.26439c-0.3039-0.55892-0.3039 0.55892 0 0zm6.8792 0c-0.30389-0.55893-0.30389 0.55893 0 0zm4.7625 0c-0.30389-0.55893-0.30389 0.55893 0 0zm4.4979 0c-0.30389-0.55893-0.30389 0.55893 0 0zm-5.0271-0.22358c-0.96053-1.1571-1.5008-1.0186 0 0zm4.8432-0.58798c0.74287-2.0855 3.4768-3.4895 4.2796-0.65556 3.0332 2.1478 6.6437-1.2593 5.9073-4.4056 1.8736-1.1093 4.82 1.558 6.1965-1.5285 2.1245-2.3748-1.733-5.2297 1.5474-6.5746 2.9369-1.9509 1.3547-6.9402-2.392-5.4184-3.7358 1.3013-4.8526-2.4503-6.376-4.8419-3.6173-1.1117-3.704-4.8498-4.752-7.9132-3.1071-1.8736-1.2473-5.4186-1.1943-8.2165-1.5682-2.8989-5.0414-1.3064-6.8616 0.20761-0.86847 0.0475-4.5178-2.5009-3.0676-0.88201 3.3904 1.6236 2.7276 6.3524 5.7567 8.3027 3.2216 3.2667 5.5492 8.1011 4.5461 12.742-0.58312 3.2503-5.0402 4.2023-7.1167 1.8437-1.7944-1.3704-1.1691-5.6603-1.5038-6.24 0.36259 5.564-3.205 11.489-8.9087 12.59-5.881 1.4775-12.817-2.2561-13.888-8.4383-0.30413-1.4562-0.33245-4.9389-0.62268-1.6254-0.22479 2.4199-3.0247 4.5107-0.54173 6.247-0.94243 2.6077-0.72393 7.2569 3.1198 6.6798 1.5383-0.72767 4.0988-0.82185 3.1962 1.6732 0.3982 3.6692 4.7359 3.7294 7.201 2.5458 1.893 1.3856 2.1888 5.4254 5.5195 4.0404 1.9347-1.1392 4.5111-3.2424 5.6034-1e-3 1.277 0.96753 3.0404 0.49361 4.3513-0.13072zm10.15 0.2383c-0.58915 0.0594 0.3768 0.68302 0 0zm-18.168 0.0441c-0.30391-0.55895-0.30391 0.55895 0 0zm8.9958 0c-0.30389-0.55893-0.30389 0.55893 0 0zm8.8635-0.92604c1.0079-1.5301-1.4889 1.5477 0 0zm-30.03-1.9844c-0.30387-0.55896-0.30392 0.55894 0 0zm3.175 0c-0.30387-0.55896-0.30392 0.55894 0 0zm-4.2333-0.52917c-0.30389-0.55893-0.30389 0.55893 0 0zm5.0271 0c-0.30389-0.55893-0.30389 0.55893 0 0zm-6.6146-0.79375c-0.30389-0.55893-0.30389 0.55893 0 0zm37.747-0.0441c-0.75377-0.49075-0.0851 0.66289 0 0zm-1.3064-0.24804c-1.2296-0.13003-0.89569 0.43203 0 0zm-36.879-0.51302c-0.68966-0.93859 0.25045 1.0568 0 0zm0.70245 0.27599c-0.30389-0.55893-0.30389 0.55893 0 0zm37.571 0c-0.30391-0.55895-0.30391 0.55895 0 0zm0.52916-0.26458c-0.30389-0.55893-0.30389 0.55893 0 0zm-38.365-0.26458c-0.30387-0.55896-0.30392 0.55894 0 0zm39.555-0.66146c1.0079-1.53-1.4889 1.5476 0 0zm0.66146-0.92604c-0.30388-0.55897-0.30392 0.55896 0 0zm0.26458-0.52917c-0.30389-0.55893-0.30389 0.55893 0 0zm-44.009-0.30868c-0.75379-0.49077-0.0851 0.6629 0 0zm1.3229 0c-0.75377-0.49073-0.0852 0.66288 0 0zm-2.2931-0.22049c-0.30389-0.55893-0.30389 0.55893 0 0zm3.175 0c-0.30389-0.55893-0.30389 0.55893 0 0zm-4.2333-0.52916c-0.30387-0.55896-0.30392 0.55894 0 0zm46.221-0.85486c-0.5631 0.63754 0.51596 0.90888 0 0zm-46.75 0.3413c-0.60906-1.2273-0.75883 0.0395 0 0zm-0.79375-1.0739c-0.30387-0.55896-0.30392 0.55894 0 0zm-0.88194-0.83785c-0.58916 0.0594 0.37681 0.68302 0 0zm0.61736 0.30868c-0.30389-0.55893-0.30389 0.55893 0 0zm47.625 0c-0.30389-0.55893-0.30389 0.55893 0 0zm-0.26458-0.52917c-0.30391-0.55895-0.30391 0.55895 0 0zm-36.248-0.79375c-0.30389-0.55893-0.30389 0.55893 0 0zm4.7625 0c-0.30389-0.55893-0.30389 0.55893 0 0zm-16.14-0.26459c-0.3039-0.55892-0.3039 0.55892 0 0zm10.319 0c-0.3039-0.55892-0.3039 0.55892 0 0zm-0.79375-0.26458c-0.30388-0.55895-0.30392 0.55895 0 0zm8.4209-0.79933c2.4609-0.9172 5.7751-3.8858 3.3964-6.5346-1.775-2.1797 0.034-3.0502 2.0326-1.9287 1.2342-1.4936 1.4345-6.6086-1.6747-5.2178-3.1244 0.65332-6.8528-0.17915-8.3404-3.2609-1.6938-2.4542-3.016 2.4566-5.3896 1.5711-2.8626-0.41974-5.2901 0.28522-4.5623 3.6027-0.4257 4.7345 1.6369 10.131 6.3128 11.985 3.2828 1.7831 2.3547-2.7641-0.15269-2.9832-1.5516-0.52985-2.0208-2.0999 0.0468-1.3646 2.298 1.604 4.7398 0.97888 7.1273 0.62511 1.5713 2.2776-5.7534 0.59893-3.428 3.9848 1.1423 1.0692 3.3124-0.10841 4.6318-0.47901zm0.54727-8.0522c-2.2022-2.3206 4.6676-3.2751 1.4493-0.96177-0.52498 0.87225-0.29627 3.6056-1.4493 0.96177zm30.19 8.587c-0.30389-0.55893-0.30389 0.55893 0 0zm-40.746-0.52916c-0.30388-0.55895-0.30392 0.55895 0 0zm12.171-0.26459c-0.30389-0.55893-0.30389 0.55893 0 0zm-12.965-0.26458c-0.3039-0.55892-0.3039 0.55892 0 0zm42.598 0c-0.30389-0.55893-0.30389 0.55893 0 0zm-49.477-1.5875c-0.30389-0.55893-0.30389 0.55893 0 0zm5.0271-0.26458c-0.30387-0.55896-0.30392 0.55894 0 0zm8.7974-0.0429c-0.99047-0.33673-0.71611 0.48685 0 0zm36.358-0.26575c-0.58915 0.0594 0.37683 0.68303 0 0zm-39.07 0.0441c-0.30389-0.55893-0.30389 0.55893 0 0zm4.2333 0c-0.30389-0.55893-0.30389 0.55893 0 0zm-20.944-1.7859c-1.8998-1.7935 1.1624 1.8046 0 0zm55.869 0.72761c-0.30389-0.55893-0.30389 0.55893 0 0zm-53.253-0.29215c-0.77771-0.33868-1.0082 0.49116 0 0zm11.713 0.0276c-0.30387-0.55896-0.30392 0.55894 0 0zm-10.054-0.26459c-0.30389-0.55893-0.30389 0.55893 0 0zm0.8275-0.59531c1.004-1.3992-1.5494 1.5176 0 0zm28.012 0.33073c-0.30391-0.55895-0.30391 0.55895 0 0zm4.2333 0c-0.30389-0.55893-0.30389 0.55893 0 0zm-32.756-0.92487c1.7836-3.3724 1.0569-7.3985 2.5032-10.876-1.2529-3.6252-4.2726-0.20192-5.216 1.7825-1.6525 2.544-2.8841 6.0765-1.2758 8.9117 0.97766 1.0709 2.9665 1.3362 3.9886 0.18214zm32.353 0.16153c2.3973-2.9933 0.39882-7.0146-1.1681-9.9112-0.89237-1.934-4.3775-5.3284-4.3262-1.0513 0.61196 3.5536 0.0473 7.5658 1.7269 10.787 0.92736 1.2465 2.6909 1.2116 3.7673 0.17557zm18.659 0.49876c-0.30387-0.55896-0.30392 0.55894 0 0zm-23.019-0.26459c-0.30389-0.55893-0.30389 0.55893 0 0zm5.2917 0c-0.30391-0.55895-0.30391 0.55895 0 0zm-8.7312-0.26465c-0.30391-0.55895-0.30391 0.55895 0 0zm26.194 0c-0.30391-0.55895-0.30391 0.55895 0 0zm-27.252-0.26458c-0.30387-0.55896-0.30392 0.55894 0 0zm-29.104-0.26459c-0.3039-0.55892-0.3039 0.55892 0 0zm6.8792 0c-0.30389-0.55893-0.30389 0.55893 0 0zm22.754 0c-0.30389-0.55893-0.30389 0.55893 0 0zm9.7896 0c-0.30389-0.55893-0.30389 0.55893 0 0zm16.404-0.24897c-0.60911-1.2274-0.75885 0.0394 0 0zm-26.988-0.28019c-0.30387-0.55896-0.30392 0.55894 0 0zm21.872-0.0441c-0.75377-0.49075-0.0851 0.66289 0 0zm2.9986-0.0882c-0.65549-0.73059-1.2666 1.0103 0 0zm-46.567-0.13229c-0.3039-0.55892-0.3039 0.55892 0 0zm32.544 0c-0.30391-0.55895-0.30391 0.55895 0 0zm10.173-0.0682c-1.0173-0.99595-2.0004-1.4562-0.4618-0.15267-0.0343-0.0291 0.84765 0.68761 0.4618 0.15267zm-20.492-0.19638c-0.30391-0.55895-0.30391 0.55895 0 0zm24.236-0.29473c0.45983-3.5121-3.4341-5.3786-4.7793-8.2492-2.4998-3.2505-4.8862-6.5922-7.5524-9.7113-1.8513 0.5502-0.73841 1.7647-0.78859 1.2033-0.91008 3.2408 3.823 4.6883 2.6008 7.7843-0.0129 3.7582 4.9326 3.3471 5.4337 6.8352 0.72144 2.2637 2.9871 3.1868 5.0858 2.1376zm-25.294-0.23444c-0.30389-0.55893-0.30389 0.55893 0 0zm0.79375-0.52916c-0.30387-0.55896-0.30392 0.55894 0 0zm25.762-0.46303c-0.95863-1.3137-2.9866-4.2937-3.457-4.3934 1.1256 1.4833 2.0514 3.1435 3.457 4.3934zm-23.909-0.0661c-0.30391-0.55895-0.30391 0.55895 0 0zm16.933-0.26458c-0.30387-0.55896-0.30392 0.55894 0 0zm-38.629-0.26459c-0.30389-0.55893-0.30389 0.55893 0 0zm38.276-0.57326c-0.58916 0.0594 0.37681 0.68302 0 0zm-39.864-0.48507c-0.30389-0.55893-0.30389 0.55893 0 0zm39.688-0.79375c-0.27541-2.0533-0.8671 1.5188 0 0zm-1.1465-0.83785c-0.75377-0.49073-0.0852 0.66288 0 0zm-1.5223-0.69133c-0.83604-0.82854-2.6366-3.0166-1.1808-0.6852 0.21281 0.33542 2.6298 1.8678 1.1808 0.6852zm-36.754-0.0583c-0.3039-0.55892-0.3039 0.55892 0 0zm0.79375-1.0583c-0.30388-0.55895-0.30392 0.55895 0 0zm0.44097-0.30869c-0.58915 0.0594 0.37683 0.68303 0 0zm17.022-0.22048c-0.30391-0.55895-0.30391 0.55895 0 0zm23.416-1.4552c-0.93779-1.4663-1.4938-1.2993-0.17954 0.1461 0.93727 1.2523 1.5386 1.4893 0.17954-0.1461zm-25.268 1.1906c-0.30387-0.55896-0.30392 0.55894 0 0zm3.7042 0c-0.30387-0.55896-0.30392 0.55894 0 0zm-25.665-0.52919c-0.3039-0.55892-0.3039 0.55892 0 0zm20.638 0c-0.30391-0.55895-0.30391 0.55895 0 0zm5.0742-0.27649c4.1658-1.2 5.631-7.7093 1.8533-10.195-2.8948-2.9163-8.2762-1.4409-9.5848 2.3672-1.7288 3.9947 2.0299 8.6525 6.2445 8.1646 0.50798-0.0425 1.0106-0.1541 1.4869-0.33631zm-6.806-3.4156c-2.7982-2.3835 2.8676-5.7191 3.6705-2.0846 0.42399 1.9141-2.2609 3.865-3.6705 2.0846zm0.67348-0.52558c-0.60907-1.2273-0.75883 0.0394 0 0zm1.5402-0.75897c-0.52268-3.6735-2.6095 2.2905 0 0zm0.84108-0.0504c-0.30387-0.55896-0.30392 0.55894 0 0zm5.0271 5.0271c-0.30391-0.55895-0.30391 0.55895 0 0zm8.4667-0.26458c-0.30387-0.55896-0.30392 0.55894 0 0zm-15.61-0.26459c-0.30391-0.55895-0.30391 0.55895 0 0zm7.9375 0c-0.30391-0.55895-0.30391 0.55895 0 0zm-27.252-0.26458c-0.30389-0.55893-0.30389 0.55893 0 0zm28.84 0c-0.30391-0.55895-0.30391 0.55895 0 0zm10.77-1.2537c-0.48263 0.95363 0.41533 1.5561 0 0zm-29.49 0.94617c-0.99053-0.33663-0.7161 0.48676 0 0zm-2.1828-0.22165c-0.30389-0.55893-0.30389 0.55893 0 0zm-7.4083-0.26458c-0.30389-0.55893-0.30389 0.55893 0 0zm12.059-0.76319c2.7562-0.87006 4.1469-5.033 1.5029-6.8407-2.755-2.397-8.0472-2.0765-9.572 1.5604-1.0095 3.185 2.283 6.234 5.3798 5.9064 0.92755 0.0578 1.9152-0.0736 2.6892-0.62617zm-2.0052-1.2212c-3.0522-3.1832 4.7009-5.4534 3.652-1.0475-0.35198 1.5814-2.5209 2.2512-3.652 1.0475zm0.79375-0.38126c-0.60905-1.2272-0.75881 0.0395 0 0zm1.421-0.73679c0.48284-2.3909-3.2738 0.48698-0.4822 0.43518 0.25293-0.0223 0.33278-0.2729 0.4822-0.43518zm0.43112-1.3955c-0.30389-0.55893-0.30389 0.55893 0 0zm20.638 4.2333c-0.30387-0.55896-0.30392 0.55894 0 0zm-20.108-0.26459c-0.3039-0.55892-0.3039 0.55892 0 0zm3.9688 0c-0.3039-0.55892-0.3039 0.55892 0 0zm11.112 0c-0.30391-0.55895-0.30391 0.55895 0 0zm-23.019-0.26458c-0.3039-0.55892-0.3039 0.55892 0 0zm9.0296-0.59531c0.95444-1.3437-1.4334 1.4263 0 0zm29.584-0.71025c-0.72549-1.2525-2.2916-2.6112-0.6827-0.54704 0.34353 0.62001 1.8573 2.0594 0.6827 0.54704zm-11.626 0.52742c-0.60905-1.2272-0.75881 0.0395 0 0zm6.3784-0.86574c-0.70452-0.86525-2.3472-2.3832-0.86234-0.51549 0.22406 0.49966 2.2969 1.7658 0.86234 0.51549zm-34.689 0.32096c-0.30389-0.55893-0.30389 0.55893 0 0zm25.135 0c-0.30391-0.55895-0.30391 0.55895 0 0zm2.3812-0.26458c-0.30391-0.55895-0.30391 0.55895 0 0zm-28.046-0.52917c-0.30389-0.55893-0.30389 0.55893 0 0zm-0.26458-1.3229c-0.30387-0.55896-0.30392 0.55894 0 0zm33.518-1.2402c-0.47271-1.0393 0.22427 1.8648 0 0zm4.8463 0.2143c-0.50757-0.81833-1.3418-0.78231 0 0zm-12.171-0.56157c-0.30392-0.55894-0.30387 0.55896 0 0zm10.556-1.5863c-1.7527-2.5521-0.9056-0.17327 0.46179 0.77142 0.17115-0.2948-0.64145-0.5148-0.46179-0.77142zm-35.956 0.2634c-0.30389-0.55893-0.30389 0.55893 0 0zm10.848-0.26459c-0.30392-0.55895-0.30388 0.55895 0 0zm2.215-1.9441c1.536-1.357 5.1637-2.8669 1.221-3.9207-1.751-0.82136-4.8394 0.0212-2.4773 1.7521-0.49094 1.7453-5.9553-0.0455-2.6203 1.9738 1.573 0.95667 2.9654 3.2524 3.8766 0.19479zm-0.3629 1.9441c-0.30392-0.55894-0.30387 0.55896 0 0zm-12.171-0.52919c-0.3039-0.55892-0.3039 0.55892 0 0zm12.435 0c-0.30389-0.55893-0.30389 0.55893 0 0zm-11.377-0.79375c-0.30389-0.55893-0.30389 0.55893 0 0zm7.9375 0c-0.30389-0.55893-0.30389 0.55893 0 0zm-0.52917-0.26459c-0.30392-0.55894-0.30387 0.55896 0 0zm4.8948-0.13229c0.21136-1.0548-0.87591 1.2189 0 0zm-10.716-0.39687c-0.30389-0.55893-0.30389 0.55893 0 0zm1.3229-0.26459c-0.30392-0.55895-0.30388 0.55895 0 0zm29.104 0c-0.30392-0.55894-0.30387 0.55896 0 0zm-18.521-0.26458c-0.30389-0.55893-0.30389 0.55893 0 0zm18.256-0.26458c-0.30389-0.55893-0.30389 0.55893 0 0zm-26.326-0.66146c0.21139-1.0548-0.87593 1.2188 0 0zm9.6573 0.13229c-0.30389-0.55893-0.30389 0.55893 0 0zm8.4667 0c-0.30391-0.55895-0.30391 0.55895 0 0zm0.92604-0.13229c0.21138-1.0549-0.87591 1.2188 0 0zm6.7469-0.0999c-0.50758-0.81835-1.3418-0.78229 0 0zm-8.2021-0.29699c-0.30392-0.55894-0.30387 0.55896 0 0zm-20.726-0.30868c-0.75377-0.49074-0.0851 0.66288 0 0zm20.197 0.0441c-0.30389-0.55893-0.30389 0.55893 0 0zm2.6458 0c-0.30391-0.55895-0.30391 0.55895 0 0zm-6.35-0.26458c-0.30391-0.55895-0.30391 0.55895 0 0zm3.175 0c-0.30391-0.55895-0.30391 0.55895 0 0zm-20.638-0.26459c-0.30392-0.55895-0.30388 0.55895 0 0zm18.433-0.0441c-0.75377-0.49073-0.0852 0.66288 0 0zm1.4111 0.0441c-0.30392-0.55896-0.30388 0.55897 0 0zm5.5562-0.26458c-0.30391-0.55895-0.30391 0.55895 0 0zm2.3812 0c-0.30391-0.55895-0.30391 0.55895 0 0zm-14.023-0.24897c-0.60911-1.2274-0.75885 0.0394 0 0zm-5.5562-1.3385c-0.30389-0.55893-0.30389 0.55893 0 0zm3.175 0c-0.30389-0.55893-0.30389 0.55893 0 0zm-1.3946-0.29214c-1.2294-0.13009-0.89588 0.43212 0 0zm0.42754 51.61c0.11017-1.4923 1.0626 1.6411 0 0zm10.421-6.3481c-2.0305-2.2278 4.2194 1.7 0.93359 0.47367-0.34966-0.0786-0.62807-0.30431-0.93359-0.47367zm-26.619-16.593c-2.3114-2.222 3.494 1.6278 0.34429 0.24688-0.11476-0.0823-0.22953-0.16459-0.34429-0.24688zm25.56-28.197c-1.6279-3.1217-5.6434-0.81996-7.7107-2.65 0.77969-2.6205 4.9634-1.7309 6.7701-0.44576 1.5217 0.33181 4.4106 5.8884 0.94054 3.0957zm-0.98628-2.0318c-0.30389-0.55893-0.30389 0.55893 0 0zm-1.0024 1.5055c-2.5339-2.5222 3.7764 1.9391 0.39832 0.26792-0.13277-0.0893-0.26555-0.17861-0.39832-0.26792zm-5.6783-0.86527c-1.6261-1.5242 0.89367-0.63686 0.61621 0.18277zm2.3151 0.0212c1.8258-0.68839 0.62018 0.32335-0.36656 0.26981z"/></g></svg>